<svg xmlns="http://www.w3.org/2000/svg" width="306.663" height="83.372" viewBox="0 0 306.663 83.372">
  <path
    d="M0 41.756c0-7.712 5.765-14.1 13.788-14.1 4.947 0 7.83 1.83 10.555 4.4l-2.025 2.182c-2.298-2.18-4.87-3.74-8.57-3.74-6.036 0-10.554 4.91-10.554 11.257 0 6.31 4.557 11.256 10.555 11.256 3.738 0 6.192-1.44 8.802-3.933l2.025 2.142c-2.843 2.88-5.96 4.634-10.906 4.634C5.805 55.856 0 49.664 0 41.756zm34.63-13.632h11.723c3.35 0 6.037 1.013 7.75 2.726 1.325 1.324 2.104 3.233 2.104 5.453 0 4.518-3.116 7.167-7.4 7.946l8.374 11.14h-3.777l-7.907-10.595h-7.79V55.39H34.63V28.123zM46.08 42.03c4.09 0 7.01-2.104 7.01-5.687 0-3.35-2.57-5.375-6.97-5.375h-8.414V42.03h8.374zm20.178-.274c0-7.517 5.648-14.1 13.944-14.1 8.296 0 13.866 6.504 13.866 14.1 0 7.517-5.648 14.1-13.944 14.1-8.296 0-13.866-6.505-13.866-14.1zm24.616 0c0-6.193-4.518-11.256-10.75-11.256s-10.672 4.986-10.672 11.256c0 6.193 4.518 11.256 10.75 11.256s10.672-4.985 10.672-11.256zm12.584 9.66l1.908-2.26c2.843 2.572 5.57 3.857 9.348 3.857 3.66 0 6.076-1.947 6.076-4.713 0-2.532-1.363-3.973-7.09-5.18-6.27-1.363-9.152-3.39-9.152-7.946 0-4.285 3.778-7.44 8.958-7.44 3.973 0 6.816 1.13 9.58 3.35l-1.79 2.377c-2.533-2.063-5.064-2.96-7.87-2.96-3.543 0-5.803 1.95-5.803 4.48 0 2.57 1.402 4.012 7.4 5.297 6.076 1.324 8.88 3.544 8.88 7.79 0 4.674-3.895 7.712-9.31 7.712-4.32-.002-7.863-1.443-11.135-4.364zm29.215 0l1.908-2.26c2.844 2.572 5.57 3.857 9.35 3.857 3.66 0 6.075-1.947 6.075-4.713 0-2.532-1.363-3.973-7.09-5.18-6.27-1.363-9.152-3.39-9.152-7.946 0-4.285 3.778-7.44 8.958-7.44 3.974 0 6.817 1.13 9.582 3.35l-1.792 2.377c-2.532-2.063-5.063-2.96-7.868-2.96-3.544 0-5.804 1.95-5.804 4.48 0 2.57 1.402 4.012 7.4 5.297 6.076 1.324 8.88 3.544 8.88 7.79 0 4.674-3.895 7.712-9.31 7.712-4.32-.002-7.864-1.443-11.135-4.364z"
    fill="#2C292A"/>
  <path
    d="M182.054 41.756c0-7.517 5.648-14.1 13.944-14.1 8.296 0 13.866 6.504 13.866 14.1 0 7.517-5.648 14.1-13.944 14.1-8.296 0-13.866-6.505-13.866-14.1zm24.616 0c0-6.193-4.518-11.256-10.75-11.256s-10.672 4.986-10.672 11.256c0 6.193 4.518 11.256 10.75 11.256s10.672-4.985 10.672-11.256zm10.442-13.632h3.427l9.698 23.486 9.737-23.486h3.31l-11.723 27.46h-2.726l-11.724-27.46zm36.226 0h19.708v2.804h-16.63v9.31h14.878v2.803h-14.88v9.544h16.827v2.804H253.34V28.124zm30.772 0h11.725c3.35 0 6.037 1.013 7.75 2.726 1.325 1.324 2.104 3.233 2.104 5.453 0 4.518-3.117 7.167-7.4 7.946l8.373 11.14h-3.778l-7.907-10.595h-7.79V55.39h-3.077V28.123zm11.453 13.905c4.09 0 7.01-2.104 7.01-5.687 0-3.35-2.57-5.375-6.97-5.375h-8.414V42.03h8.373z"
    fill="#bbb"/>
  <path fill="#2C292A" d="M167.24 0h2.2v83.372h-2.2z"/>
</svg>
